<?xml version="1.0" encoding="utf-8"?>
<svg xmlns="http://www.w3.org/2000/svg" viewBox="8.1127 9.8459 49.1877 51.1311" width="49.1877px" height="51.1311px" xmlns:bx="https://boxy-svg.com"><defs><linearGradient gradientUnits="userSpaceOnUse" x1="31.584" y1="16.649" x2="31.584" y2="47.639" id="gradient-0" gradientTransform="matrix(0.659465, 0.751735, -1.030851, 0.904323, 60.470975, -18.140014)"><stop offset="0" style="stop-color: rgb(100% 0% 0%)"/><stop offset="1" style="stop-color: rgb(108, 0, 0);"/></linearGradient></defs><g id="object-1" transform="matrix(1, 0, 0, 1, 0, 3.552713678800501e-15)"><g id="Finance" transform="matrix(1, 0, 0, 1, 10.434267, 9.845883)"><rect class="cls-1" height="48" rx="2" ry="2" width="35" x="6" style="fill: rgb(208, 215, 223);"/><rect class="cls-2" height="5" rx="1" ry="1" width="5" x="9" y="39" style="fill: rgb(164, 176, 192);"/><rect class="cls-2" height="5" rx="1" ry="1" width="5" x="17" y="39" style="fill: rgb(164, 176, 192);"/><rect class="cls-2" height="5" rx="1" ry="1" width="5" x="25" y="39" style="fill: rgb(164, 176, 192);"/><rect class="cls-2" height="5" rx="1" ry="1" width="5" x="9" y="31" style="fill: rgb(164, 176, 192);"/><rect class="cls-2" height="5" rx="1" ry="1" width="5" x="17" y="31" style="fill: rgb(164, 176, 192);"/><rect class="cls-2" height="5" rx="1" ry="1" width="5" x="25" y="31" style="fill: rgb(164, 176, 192);"/><rect class="cls-2" height="5" rx="1" ry="1" width="5" x="9" y="23" style="fill: rgb(164, 176, 192);"/><rect class="cls-2" height="5" rx="1" ry="1" width="5" x="17" y="23" style="fill: rgb(164, 176, 192);"/><rect class="cls-2" height="5" rx="1" ry="1" width="5" x="25" y="23" style="fill: rgb(164, 176, 192);"/><rect class="cls-3" height="5" rx="1" ry="1" width="5" x="9" y="15" style="fill: rgb(76, 86, 101);"/><rect class="cls-2" height="5" rx="1" ry="1" width="5" x="9" y="15" style="fill: rgb(164, 176, 192);"/><rect class="cls-2" height="5" rx="1" ry="1" width="5" x="17" y="15" style="fill: rgb(164, 176, 192);"/><rect class="cls-2" height="5" rx="1" ry="1" width="5" x="25" y="15" style="fill: rgb(164, 176, 192);"/><rect class="cls-2" height="5" rx="1" ry="1" width="5" x="33" y="23" style="fill: rgb(164, 176, 192);"/><rect class="cls-2" height="5" rx="1" ry="1" width="5" x="33" y="15" style="fill: rgb(164, 176, 192);"/><rect class="cls-2" height="13" rx="1" ry="1" width="5" x="33" y="31" style="fill: rgb(164, 176, 192);"/><rect class="cls-4" height="9" width="29" x="9" y="3" style="fill: rgb(73, 170, 238);"/></g><g transform="matrix(1, 0, 0, 1, -40.141125, -4.856582)" id="object-0"><g transform="matrix(1, 0, 0, 1, 26.457608, 7.237285)"><polyline style="fill: none; stroke-linejoin: round; stroke-linecap: round; stroke-width: 2px; stroke: url(&quot;#gradient-0&quot;);" points="32.191 48.588 44.816 30.989 53.616 40.458 65.859 17.598"/></g><path d="M 64.534 23.587 Q 64.965 22.367 65.395 23.587 L 67.404 29.278 Q 67.834 30.497 66.973 30.497 L 62.956 30.497 Q 62.095 30.497 62.525 29.278 Z" bx:shape="triangle 62.095 22.367 5.739 8.13 0.5 0.15 1@0eb9cc56" style="stroke: rgb(255, 0, 0); fill: rgb(255, 0, 0); transform-box: fill-box; transform-origin: 50% 50%;" transform="matrix(0.886919, 0.461924, -0.461924, 0.886919, 28.449555, -4.102201)"/></g><g id="Layer_2" data-name="Layer 2" transform="matrix(0.374985, 0, 0, 0.374985, 8.125705, 36.96378)" style=""><g id="Layer_1-2" data-name="Layer 1"><path class="cls-1" d="M64,32a31.86,31.86,0,0,1-1.08,8.25,30.8,30.8,0,0,1-2.46,6.35A32,32,0,1,1,11.74,7.24a32.34,32.34,0,0,1,12-6.16A31.86,31.86,0,0,1,32,0,31.52,31.52,0,0,1,43.79,2.26a23.2,23.2,0,0,1,2.48,1.11q.53.25,1.06.56A31.22,31.22,0,0,1,52.92,7.8a30.22,30.22,0,0,1,3.28,3.28,31.23,31.23,0,0,1,3.87,5.59,29,29,0,0,1,2.59,6.23A31.26,31.26,0,0,1,64,32Z" style="fill: rgb(255, 183, 77);"/><circle class="cls-2" cx="32" cy="32" r="25.26" style="fill: rgb(239, 144, 20);"/><path class="cls-1" d="M30,27c0-1,.88-1.55,2.17-1.55a13.76,13.76,0,0,1,6.28,2.22l.57-1.28,1.31-2.93A14.19,14.19,0,0,0,34,21.17V16.84H30.32v4.48a8,8,0,0,0-2.9,1.15,5.8,5.8,0,0,0-2.63,5c0,7.49,10.37,5.25,10.37,9,0,1.2-1,1.84-2.54,1.84a11.79,11.79,0,0,1-7.11-3.17l-1.94,4.13a13.57,13.57,0,0,0,6.74,3.18v4.68H34V42.59c3.67-.45,6.4-2.63,6.4-6.38C40.42,28.56,30,30.65,30,27Z" style="fill: rgb(255, 183, 77);"/></g></g></g></svg>